<?xml version="1.0" standalone="no"?>
<!DOCTYPE svg PUBLIC "-//W3C//DTD SVG 20010904//EN"
 "http://www.w3.org/TR/2001/REC-SVG-20010904/DTD/svg10.dtd">
<svg version="1.0" xmlns="http://www.w3.org/2000/svg"
 width="822.000000pt" height="401.000000pt" viewBox="0 0 822.000000 401.000000"
 preserveAspectRatio="xMidYMid meet">

<g transform="translate(0.000000,401.000000) scale(0.100000,-0.100000)"
fill="#000000" stroke="none">
<path d="M2640 3964 c-179 -23 -311 -60 -455 -129 -238 -114 -450 -365 -520
-615 -22 -79 -25 -233 -6 -310 29 -117 115 -280 148 -280 8 0 50 18 94 41 87
45 167 122 208 201 l25 46 -18 60 c-51 168 36 339 217 426 161 78 321 111 527
110 359 -1 661 -105 866 -296 69 -65 112 -147 123 -232 l6 -50 90 -29 c74 -23
114 -30 224 -34 l134 -6 -7 91 c-14 186 -64 316 -180 472 -202 270 -486 445
-834 511 -86 17 -155 22 -357 24 -137 2 -266 1 -285 -1z m479 -89 c277 -39
558 -165 699 -313 39 -40 62 -78 62 -101 0 -21 -55 -3 -168 54 -305 152 -518
208 -778 204 -198 -4 -317 -22 -486 -75 -225 -71 -403 -190 -569 -383 -21 -24
-44 -41 -57 -41 -19 0 -22 5 -22 46 0 27 12 77 31 125 36 89 103 171 212 257
66 53 254 151 349 182 55 18 226 55 298 64 65 8 314 -3 429 -19z"/>
<path d="M6213 3890 c-102 -11 -210 -37 -333 -77 -350 -115 -550 -281 -686
-567 -53 -112 -64 -165 -64 -304 l0 -105 93 7 c104 8 173 23 267 58 64 24 65
26 72 69 4 24 23 76 43 115 107 218 404 337 840 337 193 0 258 -10 404 -59
197 -68 362 -191 420 -314 38 -80 37 -186 -2 -253 -60 -102 -202 -208 -345
-257 -161 -55 -425 -82 -614 -62 -114 12 -323 65 -402 103 l-39 19 -66 -42
c-84 -53 -136 -76 -293 -128 -71 -23 -128 -45 -128 -49 0 -4 19 -25 43 -47
168 -161 429 -282 732 -341 132 -25 485 -25 610 1 187 38 325 85 461 155 140
74 201 117 305 221 188 187 259 373 236 620 -40 452 -444 787 -1067 885 -122
19 -382 27 -487 15z m485 -116 c203 -41 346 -95 455 -171 28 -19 54 -37 56
-39 2 -2 5 -14 6 -27 l3 -23 -67 18 c-36 9 -77 17 -92 17 -14 1 -29 5 -35 9
-9 9 -97 30 -159 39 -16 2 -45 8 -63 13 -18 5 -137 7 -265 6 -223 -3 -253 -6
-432 -45 -95 -20 -256 -85 -369 -150 -39 -23 -194 -143 -256 -200 -50 -46
-106 -81 -130 -81 -28 0 -55 57 -46 102 10 55 91 182 160 251 101 101 266 188
486 256 206 63 511 74 748 25z m-403 -1359 c127 -17 271 -19 365 -5 76 11 228
15 237 6 11 -10 -30 -58 -65 -76 -17 -10 -37 -22 -44 -27 -27 -22 -128 -52
-227 -68 -201 -34 -457 1 -541 73 -25 21 -26 78 -2 105 19 22 68 21 277 -8z"/>
<path d="M1120 3795 c-8 -2 -55 -9 -105 -15 -235 -31 -456 -108 -620 -215 -77
-50 -211 -186 -254 -258 -83 -140 -110 -269 -92 -436 6 -55 18 -119 28 -143
73 -185 271 -387 488 -496 294 -147 746 -192 1135 -111 335 69 573 207 743
431 106 140 144 249 133 379 -14 165 -75 326 -158 412 l-46 49 -41 -22 c-78
-45 -139 -107 -177 -185 l-36 -73 16 -50 c42 -125 8 -222 -120 -341 -151 -141
-365 -204 -689 -204 -327 0 -581 77 -721 217 -81 81 -107 139 -108 236 -1 67
3 82 33 138 113 209 451 323 866 292 77 -5 167 -14 200 -20 33 -5 65 -10 72
-10 6 0 31 37 55 82 27 51 70 110 117 160 85 91 86 85 -30 122 -139 45 -240
58 -464 62 -115 1 -217 1 -225 -1z m-858 -647 c6 -124 57 -264 121 -334 45
-49 145 -123 262 -191 111 -66 356 -125 580 -140 103 -8 404 6 450 20 11 4 33
8 48 11 15 3 61 12 101 21 95 21 128 18 133 -14 6 -41 -60 -99 -150 -132 -29
-11 -108 -32 -177 -46 -258 -54 -656 -23 -865 67 -105 45 -163 76 -240 128
-101 68 -137 99 -180 157 -17 22 -32 42 -35 45 -8 7 -40 76 -40 87 0 4 -7 20
-14 35 -38 73 -58 155 -53 224 5 82 9 100 25 116 7 7 12 18 12 26 0 7 4 11 9
8 5 -3 10 -43 13 -88z"/>
<path d="M4360 3543 c-63 -3 -206 -21 -233 -29 -17 -5 -16 -8 6 -37 73 -97
118 -173 141 -245 l27 -79 117 5 c64 2 127 8 139 13 12 5 33 30 47 56 l24 48
-34 38 -34 37 27 54 27 55 -25 45 -24 46 -75 -2 c-41 -1 -100 -3 -130 -5z"/>
<path d="M4790 3545 c0 -5 11 -28 26 -52 l25 -43 -32 -45 -32 -45 33 -47 34
-46 -26 -48 -25 -48 36 -5 c20 -3 92 -8 161 -12 l126 -6 32 83 c21 57 53 113
98 172 36 49 65 90 63 91 -2 2 -56 13 -119 24 -120 22 -400 41 -400 27z"/>
<path d="M3483 3252 c-66 -53 -127 -121 -155 -174 -19 -36 -23 -58 -23 -133 0
-80 4 -97 32 -156 17 -37 48 -85 68 -108 155 -171 606 -318 1093 -356 l73 -5
24 55 c14 31 25 61 25 68 0 7 -16 29 -35 50 l-35 37 -118 0 c-187 0 -370 24
-507 65 -243 74 -379 160 -403 256 -9 36 -8 46 5 61 27 31 90 19 143 -25 41
-35 177 -103 250 -125 36 -11 106 -25 155 -31 50 -7 135 -19 190 -27 142 -20
264 -34 303 -34 28 0 31 2 23 18 -5 9 -24 34 -43 54 l-33 37 -145 16 c-474 51
-582 90 -578 211 1 40 -39 121 -85 173 -35 38 -138 111 -157 111 -10 0 -40
-17 -67 -38z"/>
<path d="M5792 3255 c-47 -21 -144 -122 -170 -178 -16 -34 -21 -57 -16 -85 14
-86 -83 -138 -356 -188 -49 -9 -174 -18 -292 -21 -142 -4 -208 -9 -208 -17 0
-6 17 -33 36 -60 l36 -49 62 7 c33 4 133 13 221 21 88 8 189 19 225 24 100 13
106 -15 12 -59 -119 -57 -289 -90 -459 -90 -79 0 -83 -1 -89 -24 -3 -15 2 -40
16 -66 l21 -41 -25 -44 c-15 -24 -26 -46 -26 -49 0 -17 319 12 495 46 182 34
416 127 540 215 71 51 170 157 197 212 19 38 23 62 22 131 -1 128 -44 211
-148 290 -29 22 -55 40 -57 40 -2 -1 -19 -7 -37 -15z"/>
<path d="M2484 2558 c-67 -95 -153 -184 -229 -234 -30 -20 -55 -40 -55 -43 0
-17 176 -109 278 -146 211 -74 384 -99 642 -92 250 7 408 36 578 105 135 55
311 169 297 192 -3 5 -20 12 -37 15 -89 20 -304 111 -421 178 -67 39 -69 39
-125 29 -104 -20 -325 -35 -418 -29 -114 8 -220 29 -351 72 l-103 33 -56 -80z
m525 -78 c240 -22 255 -29 201 -85 -52 -54 -112 -70 -265 -69 -221 0 -323 48
-292 137 12 37 40 48 102 42 28 -3 142 -14 254 -25z"/>
<path d="M1420 1405 l0 -575 115 0 115 0 0 575 0 575 -115 0 -115 0 0 -575z"/>
<path d="M6778 1974 c-4 -3 -5 -92 -2 -198 l6 -191 -26 31 c-74 90 -233 81
-290 -16 -20 -33 -21 -50 -21 -355 0 -285 2 -323 17 -352 25 -45 73 -75 128
-81 65 -6 112 12 154 59 20 21 38 39 41 39 3 0 5 -18 5 -40 l0 -41 108 3 107
3 0 570 0 570 -111 3 c-60 1 -113 0 -116 -4z m-27 -493 c24 -19 24 -20 24
-234 0 -197 -2 -217 -19 -236 -25 -27 -51 -27 -70 1 -13 19 -16 59 -16 233 0
174 3 214 16 233 19 27 35 28 65 3z"/>
<path d="M3892 1863 l3 -108 105 0 105 0 3 108 3 107 -111 0 -111 0 3 -107z"/>
<path d="M4990 1400 l0 -570 115 0 114 0 3 321 c3 304 4 321 22 335 25 18 37
18 62 0 18 -14 19 -31 22 -336 l3 -321 112 3 112 3 3 315 c2 173 0 338 -3 367
-19 158 -179 216 -296 106 l-49 -46 0 197 0 196 -110 0 -110 0 0 -570z"/>
<path d="M320 1660 c-65 -22 -113 -70 -132 -132 -9 -30 -13 -119 -13 -303 0
-251 1 -261 23 -302 44 -83 138 -119 288 -111 67 4 94 10 140 34 78 39 104 88
104 191 l0 73 -105 0 -105 0 0 -44 c0 -35 -5 -48 -22 -60 -59 -41 -88 -7 -88
102 l0 82 160 0 160 0 0 146 c0 174 -11 223 -59 274 -65 68 -230 92 -351 50z
m180 -180 c15 -15 20 -33 20 -75 l0 -55 -55 0 -55 0 0 59 c0 51 3 62 22 75 30
21 44 20 68 -4z"/>
<path d="M1972 1662 c-100 -36 -142 -97 -142 -207 l0 -65 100 0 100 0 0 38 c0
49 23 82 59 82 37 0 51 -17 51 -61 0 -47 -29 -72 -108 -94 -106 -29 -141 -46
-176 -85 -47 -52 -59 -103 -54 -230 5 -131 27 -181 91 -211 82 -37 184 -19
228 41 l24 31 11 -33 11 -33 111 -3 c62 -1 112 -1 112 0 0 2 -5 19 -12 38 -7
22 -13 155 -17 356 l-6 321 -25 37 c-39 57 -114 89 -219 93 -65 3 -99 -1 -139
-15z m158 -547 c0 -102 -1 -106 -25 -117 -19 -9 -29 -8 -50 6 -21 14 -25 24
-25 66 0 63 12 88 58 122 20 15 38 27 40 28 1 0 2 -47 2 -105z"/>
<path d="M2668 1667 c-104 -30 -158 -102 -158 -213 0 -137 43 -198 193 -272
48 -24 96 -55 107 -69 24 -31 26 -85 4 -107 -37 -38 -84 1 -84 69 l0 45 -110
0 -110 0 0 -72 c1 -170 103 -248 305 -236 109 7 169 36 209 102 25 40 30 60
34 131 4 73 1 90 -21 138 -29 64 -70 98 -184 152 -41 19 -85 46 -99 60 -53 53
-11 131 51 91 20 -13 25 -25 25 -56 l0 -40 105 0 105 0 0 65 c0 151 -68 215
-235 221 -55 3 -108 -1 -137 -9z"/>
<path d="M3343 1666 c-76 -25 -114 -55 -141 -114 -21 -46 -24 -65 -20 -121 9
-117 58 -181 191 -247 101 -50 127 -77 127 -130 0 -48 -19 -69 -53 -60 -28 7
-47 44 -47 91 l0 35 -110 0 -110 0 0 -58 c0 -163 99 -252 280 -252 186 0 275
85 274 260 0 127 -45 185 -203 265 -122 61 -157 109 -111 150 16 15 26 17 48
9 23 -8 28 -17 32 -54 l5 -45 105 0 105 0 -1 72 c-3 144 -70 203 -239 209 -58
3 -105 -1 -132 -10z"/>
<path d="M4432 1662 c-97 -35 -141 -101 -142 -209 l0 -63 99 0 98 0 5 45 c7
55 22 75 57 75 37 0 51 -17 51 -60 0 -50 -29 -74 -118 -99 -171 -47 -222 -111
-222 -278 0 -181 57 -263 185 -263 59 0 104 19 138 59 27 33 32 31 39 -14 3
-18 12 -20 117 -23 l114 -3 -8 23 c-5 13 -11 169 -15 348 -3 179 -10 334 -14
345 -19 44 -57 84 -103 105 -68 32 -207 38 -281 12z m168 -535 c0 -46 -6 -93
-13 -107 -16 -33 -50 -37 -78 -9 -18 18 -21 29 -17 77 5 51 9 60 48 94 23 21
46 35 51 32 5 -3 9 -42 9 -87z"/>
<path d="M7310 1661 c-63 -23 -113 -71 -131 -128 -16 -53 -24 -471 -10 -547
13 -73 46 -117 108 -147 42 -21 62 -24 168 -24 116 0 122 1 175 31 75 43 100
91 100 191 l0 73 -105 0 -105 0 0 -44 c0 -35 -5 -48 -22 -60 -59 -41 -88 -7
-88 102 l0 82 160 0 160 0 0 148 c0 81 -5 163 -10 183 -29 106 -103 152 -250
156 -74 3 -107 -1 -150 -16z m180 -181 c15 -15 20 -33 20 -75 l0 -55 -55 0
-55 0 0 59 c0 51 3 62 22 75 30 21 44 20 68 -4z"/>
<path d="M1255 1663 c-37 -10 -69 -38 -107 -97 l-38 -59 0 76 0 77 -110 0
-110 0 0 -415 0 -415 115 0 115 0 0 228 c0 196 2 232 18 261 25 50 61 73 116
73 l46 0 0 139 c0 145 1 143 -45 132z"/>
<path d="M6086 1660 c-39 -12 -72 -45 -107 -105 l-29 -50 0 78 0 77 -110 0
-110 0 0 -415 0 -416 113 3 112 3 5 240 c4 169 9 247 18 262 18 32 70 56 119
55 l43 0 0 139 c0 149 2 145 -54 129z"/>
<path d="M3887 1653 c-4 -3 -7 -203 -7 -443 0 -326 -3 -439 -12 -448 -7 -7
-27 -12 -45 -12 l-33 0 0 -100 0 -100 93 0 c109 0 167 23 204 79 l23 34 0 498
0 499 -108 0 c-60 0 -112 -3 -115 -7z"/>
<path d="M6052 938 l3 -103 105 0 105 0 3 103 3 102 -111 0 -111 0 3 -102z"/>
<path d="M160 335 l0 -205 111 0 110 0 -3 28 c-3 27 -4 27 -80 30 l-78 3 0 59
0 60 65 0 65 0 0 30 0 30 -65 0 -65 0 0 55 0 55 75 0 75 0 0 30 0 30 -105 0
-105 0 0 -205z"/>
<path d="M1620 335 l0 -205 25 0 c23 0 25 4 25 42 0 25 7 49 17 60 16 18 18
16 44 -42 27 -57 29 -60 64 -60 l36 0 -45 83 -45 82 35 45 36 45 -33 3 c-26 3
-37 -2 -51 -21 -10 -14 -27 -36 -38 -49 l-19 -23 -1 123 0 122 -25 0 -25 0 0
-205z"/>
<path d="M1870 335 l0 -205 25 0 25 0 0 205 0 205 -25 0 -25 0 0 -205z"/>
<path d="M2960 335 l0 -205 25 0 c14 0 25 5 25 12 0 6 7 4 18 -5 26 -24 77
-21 102 5 51 55 51 187 -1 239 -26 26 -73 24 -99 -3 l-20 -22 0 92 c0 91 0 92
-25 92 l-25 0 0 -205z m138 -15 c18 -35 10 -117 -15 -141 -19 -20 -20 -20 -44
0 -20 16 -24 28 -24 79 0 65 16 95 49 90 11 -2 26 -14 34 -28z"/>
<path d="M4190 335 l0 -205 25 0 c25 0 25 1 25 79 0 89 10 125 39 140 15 8 23
7 35 -5 12 -12 16 -38 16 -115 l0 -99 30 0 30 0 0 99 c0 99 -10 149 -33 163
-24 16 -76 8 -97 -14 l-20 -22 0 92 c0 91 0 92 -25 92 l-25 0 0 -205z"/>
<path d="M4770 335 l0 -205 105 0 105 0 0 30 0 30 -75 0 -75 0 0 60 0 60 65 0
65 0 0 30 0 30 -65 0 -65 0 0 55 0 55 75 0 75 0 0 30 0 30 -105 0 -105 0 0
-205z"/>
<path d="M5980 335 l0 -205 24 0 c24 0 24 2 28 96 3 86 5 98 26 115 18 14 28
16 43 9 17 -10 19 -23 19 -115 l0 -105 30 0 30 0 0 100 c0 65 -5 113 -14 135
-14 32 -19 35 -55 35 -28 0 -46 -6 -61 -22 l-20 -22 0 92 c0 91 0 92 -25 92
l-25 0 0 -205z"/>
<path d="M6530 335 l0 -205 25 0 25 0 0 205 0 205 -25 0 -25 0 0 -205z"/>
<path d="M6807 534 c-4 -4 -7 -43 -7 -87 0 -78 0 -80 -19 -63 -31 28 -81 18
-108 -23 -39 -58 -27 -190 20 -230 25 -20 65 -16 93 9 20 20 24 21 24 7 0 -11
8 -17 25 -17 l25 0 -2 203 c-3 195 -4 202 -23 205 -12 2 -24 0 -28 -4z m-17
-205 c6 -10 10 -43 10 -73 0 -66 -26 -104 -59 -87 -25 14 -31 33 -31 97 0 40
5 59 20 74 22 22 45 18 60 -11z"/>
<path d="M1230 486 c0 -33 2 -36 31 -36 28 0 30 2 27 33 -2 27 -8 33 -30 35
-26 3 -28 1 -28 -32z"/>
<path d="M720 445 c0 -31 -5 -47 -15 -51 -8 -4 -15 -16 -15 -29 0 -13 7 -25
15 -29 12 -4 15 -24 15 -93 0 -48 4 -93 8 -99 9 -15 56 -26 76 -18 24 9 20 48
-6 59 -20 9 -23 18 -26 83 -3 71 -3 72 23 72 20 0 25 5 25 24 0 18 -6 25 -22
28 -20 3 -23 10 -26 51 -3 42 -5 47 -28 47 -22 0 -24 -4 -24 -45z"/>
<path d="M4470 440 c0 -38 -4 -50 -15 -50 -9 0 -15 -9 -15 -25 0 -16 6 -25 15
-25 12 0 15 -17 15 -95 0 -90 1 -95 25 -111 34 -22 75 -12 75 19 0 13 -9 26
-22 32 -21 9 -23 17 -23 80 0 65 2 70 23 73 16 2 22 10 22 27 0 17 -6 25 -22
27 -20 3 -23 10 -26 51 -3 42 -5 47 -28 47 -22 0 -24 -4 -24 -50z"/>
<path d="M5330 445 c0 -31 -5 -47 -15 -51 -8 -4 -15 -16 -15 -29 0 -13 7 -25
15 -29 12 -4 15 -25 15 -101 0 -95 0 -96 27 -106 40 -15 73 -4 73 25 0 18 -6
25 -22 28 -21 3 -23 9 -26 81 -3 77 -3 77 23 77 20 0 25 5 25 25 0 20 -5 25
-25 25 -23 0 -25 3 -25 50 0 47 -2 50 -25 50 -23 0 -25 -4 -25 -45z"/>
<path d="M512 384 c-12 -8 -22 -10 -22 -5 0 6 -11 11 -25 11 l-25 0 0 -130 0
-130 25 0 c25 0 25 1 25 86 0 90 8 117 40 134 14 7 23 6 34 -6 12 -12 16 -38
16 -115 l0 -99 30 0 30 0 0 93 c0 97 -11 155 -32 169 -21 13 -72 9 -96 -8z"/>
<path d="M1398 386 c-45 -34 -61 -134 -32 -204 17 -43 44 -63 90 -64 46 -1 73
11 89 42 21 41 19 50 -15 50 -20 0 -30 -5 -30 -15 0 -8 -9 -19 -20 -25 -17 -9
-25 -6 -45 14 -48 48 -26 166 31 166 17 0 27 -8 34 -25 11 -29 60 -37 60 -10
0 25 -27 72 -45 79 -28 11 -99 6 -117 -8z"/>
<path d="M2345 383 c-13 -13 -20 -14 -23 -5 -2 6 -15 12 -28 12 l-24 0 0 -130
0 -130 24 0 c23 0 24 3 28 96 4 86 7 99 27 115 17 14 27 16 42 9 17 -10 19
-23 19 -115 l0 -105 30 0 30 0 0 108 c0 133 -10 156 -67 160 -29 2 -46 -2 -58
-15z"/>
<path d="M2577 388 c-24 -19 -47 -81 -47 -127 0 -57 27 -119 60 -136 24 -13
31 -12 64 4 35 18 36 18 36 1 0 -10 -4 -30 -10 -44 -7 -20 -16 -26 -40 -26
-18 0 -33 6 -36 15 -4 9 -19 15 -35 15 -38 0 -38 -23 0 -61 33 -33 75 -38 120
-15 44 23 51 53 51 221 l0 155 -25 0 c-14 0 -25 -5 -25 -12 0 -6 -7 -4 -18 5
-22 20 -71 22 -95 5z m103 -88 c13 -49 -2 -115 -30 -130 -29 -16 -60 30 -60
90 0 98 67 127 90 40z"/>
<path d="M3301 374 c-20 -25 -21 -26 -21 -5 0 16 -6 21 -25 21 l-25 0 0 -130
0 -130 24 0 c23 0 24 3 28 85 5 89 22 125 60 125 13 0 18 8 18 30 0 39 -30 41
-59 4z"/>
<path d="M3432 384 c-29 -20 -30 -64 -2 -64 11 0 29 9 39 19 22 22 56 18 65
-6 9 -23 -13 -43 -48 -43 -72 0 -108 -50 -87 -120 18 -60 89 -72 127 -22 13
16 13 16 14 0 0 -13 8 -18 28 -18 l28 0 -3 63 c-8 156 -10 167 -28 187 -23 25
-100 28 -133 4z m103 -170 c-7 -39 -38 -58 -68 -42 -30 16 -17 50 28 74 45 23
50 19 40 -32z"/>
<path d="M3957 370 c-71 -84 -30 -249 63 -252 19 0 45 2 58 6 21 7 52 52 52
76 0 20 -43 10 -66 -15 -20 -22 -27 -24 -44 -15 -46 25 -53 137 -10 172 25 21
55 11 65 -22 8 -24 55 -28 55 -5 0 25 -27 72 -45 79 -9 3 -36 6 -60 6 -36 0
-48 -5 -68 -30z"/>
<path d="M5116 378 c-13 -18 -16 -19 -16 -5 0 11 -8 17 -25 17 l-25 0 0 -130
0 -130 25 0 c25 0 25 1 25 84 0 102 11 136 43 136 40 0 47 -18 47 -122 0 -98
0 -98 25 -98 l25 0 0 118 c0 103 -3 121 -18 135 -28 25 -87 22 -106 -5z"/>
<path d="M5495 375 c-51 -50 -23 -118 61 -145 53 -16 67 -46 29 -60 -26 -10
-65 5 -65 25 0 12 -8 15 -27 13 -34 -4 -33 -31 1 -66 18 -18 34 -24 71 -24 64
0 95 29 95 88 0 49 -13 63 -79 84 -50 16 -64 42 -33 59 16 8 25 6 45 -9 14
-11 35 -20 47 -20 17 0 20 4 15 23 -18 60 -113 80 -160 32z"/>
<path d="M5751 376 c-49 -52 -50 -175 -2 -228 27 -30 71 -39 119 -24 21 7 52
52 52 76 0 20 -43 10 -66 -15 -20 -22 -27 -24 -44 -15 -46 25 -53 137 -10 172
25 21 55 11 65 -22 8 -24 55 -28 55 -5 0 25 -27 72 -45 79 -9 3 -36 6 -59 6
-32 0 -48 -6 -65 -24z"/>
<path d="M7273 378 c-20 -19 -23 -20 -23 -5 0 11 -8 17 -25 17 l-25 0 0 -130
0 -130 30 0 30 0 0 95 c0 81 3 98 20 115 44 44 70 -2 70 -126 0 -83 0 -84 25
-84 l25 0 0 108 c0 133 -10 156 -65 160 -31 2 -45 -2 -62 -20z"/>
<path d="M7501 381 c-52 -52 -52 -184 -1 -239 25 -26 76 -29 102 -5 17 15 18
15 18 -11 0 -44 -17 -66 -51 -66 -17 0 -32 6 -35 15 -4 9 -19 15 -36 15 -26 0
-29 -3 -23 -22 4 -13 18 -34 33 -47 35 -32 106 -25 139 14 22 25 23 34 23 191
l0 164 -25 0 c-14 0 -25 -5 -25 -12 0 -6 -7 -4 -18 5 -25 23 -78 21 -101 -2z
m113 -86 c5 -24 5 -50 -3 -76 -25 -84 -81 -62 -89 34 -3 43 0 57 18 80 20 26
24 27 44 14 11 -8 25 -31 30 -52z"/>
<path d="M854 373 c3 -10 17 -69 31 -130 26 -110 28 -113 54 -113 25 0 28 5
46 73 24 95 31 107 38 68 4 -17 14 -56 23 -86 14 -49 18 -55 43 -55 27 0 28 2
54 123 15 67 27 125 27 130 0 4 -11 7 -24 7 -27 0 -30 -5 -45 -94 -6 -33 -13
-61 -15 -64 -3 -2 -10 16 -16 39 -31 118 -32 120 -59 117 -23 -3 -27 -11 -46
-88 l-22 -85 -11 50 c-6 28 -14 67 -17 88 -6 33 -11 37 -37 37 -23 0 -28 -4
-24 -17z"/>
<path d="M1230 260 l0 -130 30 0 30 0 0 130 0 130 -30 0 -30 0 0 -130z"/>
<path d="M2000 277 c0 -134 10 -157 67 -157 24 0 45 8 60 22 20 18 23 19 23 5
0 -11 8 -17 25 -17 l25 0 0 130 0 130 -30 0 -30 0 0 -89 c0 -100 -4 -117 -31
-132 -14 -7 -23 -5 -39 11 -17 17 -20 33 -20 115 0 95 0 95 -25 95 l-25 0 0
-113z"/>
<path d="M3660 291 c0 -117 11 -156 48 -169 31 -11 71 1 90 25 11 16 12 16 12
0 0 -11 8 -17 25 -17 l25 0 0 130 0 130 -25 0 c-25 0 -25 -1 -25 -79 0 -89
-10 -125 -39 -140 -15 -8 -23 -7 -35 5 -12 12 -16 38 -16 115 l0 99 -30 0 -30
0 0 -99z"/>
<path d="M6250 285 c0 -118 13 -159 53 -167 30 -6 66 7 83 30 13 16 13 16 14
0 0 -12 8 -18 25 -18 l25 0 0 130 0 130 -24 0 c-23 0 -24 -3 -28 -96 -4 -86
-7 -99 -27 -115 -17 -14 -27 -16 -42 -9 -17 10 -19 23 -19 115 l0 105 -30 0
-30 0 0 -105z"/>
<path d="M6930 283 c0 -66 5 -118 13 -133 21 -42 92 -44 123 -2 13 16 13 16
14 0 0 -12 8 -18 25 -18 l25 0 0 130 0 130 -30 0 -29 0 -3 -101 c-3 -90 -5
-103 -24 -115 -17 -12 -23 -12 -40 0 -16 12 -20 29 -22 115 -4 99 -4 101 -28
101 -24 0 -24 -1 -24 -107z"/>
</g>
</svg>
